<svg width="760" height="285" viewBox="0 0 760 285" fill="none" xmlns="http://www.w3.org/2000/svg">
<g clip-path="url(#clip0_110_2)">
<mask id="mask0_110_2" style="mask-type:alpha" maskUnits="userSpaceOnUse" x="45" y="20" width="236" height="230">
<path d="M280.999 109.33V181.205C280.999 189.143 275.664 195.58 269.07 195.58C262.475 195.58 257.14 189.143 257.14 181.205V144.055L193.989 220.152C191.678 222.938 188.621 224.33 185.564 224.33C182.507 224.33 179.457 222.926 177.131 220.119L137.846 172.805L86.6241 234.527C84.3053 237.313 81.2521 238.705 78.199 238.705C71.3843 238.705 66.2695 231.989 66.2695 224.33C66.2695 220.652 67.4345 216.972 69.7645 214.169L129.412 142.294C131.732 139.473 134.789 138.08 137.846 138.08C140.903 138.08 143.952 139.484 146.279 142.292L185.564 189.65L240.29 123.705H209.423C202.828 123.705 197.493 117.268 197.493 109.33C197.493 101.392 202.828 94.9551 209.423 94.9551H269.07C275.333 94.9551 280.999 100.975 280.999 109.33Z" fill="black"/>
</mask>
<g mask="url(#mask0_110_2)">
<path d="M32 -40.5H427V401.5H32V-40.5Z" fill="#4811E4"/>
</g>
<path d="M325.096 192L311.272 192.384L310.248 187.264C314.344 186.923 316.776 186.581 317.544 186.24C318.397 185.813 318.824 184.704 318.824 182.912V150.4C318.824 146.133 316.691 144 312.424 144C311.4 144 310.589 144.043 309.992 144.128L308.84 140.416C314.387 139.051 317.928 138.069 319.464 137.472L327.272 134.4C328.381 134.4 329.064 134.528 329.32 134.784C329.576 134.955 329.704 135.509 329.704 136.448V182.912C329.704 184.448 330.088 185.515 330.856 186.112C331.624 186.624 333.501 187.008 336.488 187.264L337.64 192.384L325.096 192ZM324.328 119.296C322.195 119.296 320.403 118.656 318.952 117.376C317.587 116.011 316.904 114.261 316.904 112.128C316.904 109.995 317.629 108.16 319.08 106.624C320.531 105.088 322.323 104.32 324.456 104.32C326.675 104.32 328.467 104.96 329.832 106.24C331.283 107.52 332.008 109.269 332.008 111.488C332.008 113.621 331.24 115.456 329.704 116.992C328.253 118.528 326.461 119.296 324.328 119.296ZM401.764 106.88H391.524V181.504C391.524 183.296 392.207 184.491 393.572 185.088C395.023 185.685 398.265 186.155 403.3 186.496L404.452 192.128C393.444 191.872 387.556 191.744 386.788 191.744C386.02 191.744 380.004 191.872 368.74 192.128L367.716 186.496C373.433 185.984 376.889 185.515 378.084 185.088C379.279 184.576 379.876 183.381 379.876 181.504V106.88H371.94C367.673 106.88 364.516 107.093 362.468 107.52C356.58 108.715 352.825 113.963 351.204 123.264L347.62 123.52C347.023 120.533 346.724 116.437 346.724 111.232C346.724 105.941 347.023 102.272 347.62 100.224C349.497 100.821 352.868 101.12 357.732 101.12H415.204C420.153 101.12 423.481 100.821 425.188 100.224C425.529 103.893 425.7 107.819 425.7 112C425.7 116.181 425.359 120.021 424.676 123.52L420.836 123.136C420.068 117.163 418.276 112.981 415.46 110.592C412.644 108.117 408.079 106.88 401.764 106.88ZM436.662 144.768L434.742 144.896L433.59 141.184C439.563 139.733 443.958 138.283 446.774 136.832C449.59 135.381 451.169 134.571 451.51 134.4C452.619 134.4 453.302 134.485 453.558 134.656C453.643 134.827 453.899 138.069 454.326 144.384C459.361 138.411 464.353 135.424 469.302 135.424C474.251 135.424 477.238 136.405 478.262 138.368C478.262 140.245 476.769 143.104 473.782 146.944C472.843 148.224 472.289 148.864 472.118 148.864L461.878 145.152H461.11C459.233 145.152 457.654 146.091 456.374 147.968C455.094 149.845 454.454 152.491 454.454 155.904V182.912C454.454 184.448 455.094 185.557 456.374 186.24C457.654 186.923 460.299 187.264 464.31 187.264L465.462 192.384L450.614 192L436.022 192.384L434.998 187.264C439.094 186.923 441.526 186.581 442.294 186.24C443.147 185.813 443.574 184.704 443.574 182.912V152.96C443.574 149.888 443.019 147.755 441.91 146.56C440.801 145.365 439.051 144.768 436.662 144.768ZM504.49 186.368C508.842 186.368 512.085 184.917 514.218 182.016V167.68C506.879 168.96 501.973 170.411 499.498 172.032C497.023 173.568 495.786 175.787 495.786 178.688C495.957 181.333 496.853 183.296 498.474 184.576C500.095 185.771 502.101 186.368 504.49 186.368ZM530.474 185.6H533.162C533.589 185.6 533.887 185.557 534.058 185.472C534.399 187.691 534.698 189.056 534.954 189.568C533.93 190.08 531.583 190.891 527.914 192C524.33 193.024 521.685 193.536 519.978 193.536C518.271 193.536 517.077 192.939 516.394 191.744C515.711 190.464 515.199 188.245 514.858 185.088C513.407 187.136 511.231 189.013 508.33 190.72C505.514 192.427 502.655 193.365 499.754 193.536H499.114C495.018 193.536 491.477 192.384 488.49 190.08C485.589 187.776 484.138 184.448 484.138 180.096C484.138 175.744 486.143 172.416 490.154 170.112C494.25 167.723 502.271 165.419 514.218 163.2V155.52C514.218 146.304 510.762 141.696 503.85 141.696C501.461 141.696 499.199 142.293 497.066 143.488V152.192C497.066 152.619 495.914 153.045 493.61 153.472C491.391 153.899 489.898 154.112 489.13 154.112C488.447 154.112 487.765 154.027 487.082 153.856C486.399 153.173 486.058 151.637 486.058 149.248C486.058 146.859 486.741 144.896 488.106 143.36C489.386 141.653 492.458 139.904 497.322 138.112C502.186 136.32 505.983 135.424 508.714 135.424C519.466 135.424 524.842 141.483 524.842 153.6V179.2C524.842 181.931 525.354 183.68 526.378 184.448C527.487 185.216 528.853 185.6 530.474 185.6ZM593.475 177.28C593.475 182.827 595.352 185.6 599.107 185.6H600.643L602.819 185.472L603.715 189.568L594.627 191.104C592.494 191.531 589.379 192.341 585.283 193.536C584.174 193.536 583.619 193.195 583.619 192.512L583.235 184.832C581.699 186.965 579.182 188.971 575.683 190.848C572.184 192.64 568.472 193.536 564.547 193.536C557.55 193.536 551.832 191.147 547.395 186.368C542.958 181.504 540.739 174.976 540.739 166.784C540.739 156.715 543.47 148.992 548.931 143.616C554.392 138.155 560.963 135.424 568.643 135.424C573.848 135.424 578.499 136.405 582.595 138.368V112.64C582.595 107.605 580.291 105.088 575.683 105.088C574.574 105.088 573.464 105.216 572.355 105.472L571.203 101.632C579.992 99.072 586.648 96.768 591.171 94.72C592.707 94.72 593.475 95.5307 593.475 97.152V177.28ZM582.595 152.96C582.595 149.205 581.272 146.261 578.627 144.128C575.982 141.909 572.184 140.8 567.235 140.8C562.286 140.8 558.574 142.848 556.099 146.944C553.624 151.04 552.387 156.544 552.387 163.456C552.387 170.283 553.966 175.829 557.123 180.096C560.366 184.277 564.504 186.368 569.539 186.368C571.587 186.368 573.464 186.069 575.171 185.472C576.963 184.789 578.158 184.235 578.755 183.808C579.523 183.296 580.803 182.4 582.595 181.12V152.96ZM658.882 160.896H621.762V162.56C621.762 168.789 623.511 174.208 627.01 178.816C630.509 183.339 635.159 185.6 640.962 185.6C646.765 185.6 651.543 183.723 655.298 179.968C655.554 179.712 655.767 179.584 655.938 179.584C656.109 179.584 656.322 179.712 656.578 179.968L659.394 183.168C652.994 190.08 645.57 193.536 637.122 193.536C628.759 193.536 622.146 190.891 617.282 185.6C612.503 180.309 610.114 173.269 610.114 164.48C610.114 155.605 612.845 148.565 618.306 143.36C623.767 138.069 629.997 135.424 636.994 135.424C643.991 135.424 649.495 137.557 653.506 141.824C657.517 146.005 659.522 151.893 659.522 159.488C659.522 160.427 659.309 160.896 658.882 160.896ZM646.722 154.88C646.722 145.493 643.095 140.8 635.842 140.8C632.002 140.8 628.887 142.165 626.498 144.896C624.109 147.541 622.658 150.869 622.146 154.88H646.722Z" fill="black"/>
</g>
<defs>
<clipPath id="clip0_110_2">
<rect width="760" height="285" fill="white"/>
</clipPath>
</defs>
</svg>
